# xmcd
#
# Track frame offsets:
#	150
#	3188
#	20658
#	30914
#	40845
#	52623
#	67358
#	83776
#	101520
#	119536
#	128295
#	140124
#	153093
#	164184
#	182847
#	197968
#	210757
#	231534
#	242174
#	258713
#	282207
#
# Disc length: 3976 seconds
#
# Revision: 2
# Processed by: cddbd v1.5.2PL0 Copyright (c) Steve Scherf et al.
# Submitted via: audiograbber 1.83.01
#
DISCID=250f8615
DTITLE=Waylon Jennings - Turn Back The Years
DYEAR=1977
DGENRE=
TTITLE0=Intro
TTITLE1=Waymores Blues
TTITLE2=Amanda
TTITLE3=Lets Turn Back The Years
TTITLE4=You Ask Me To
TTITLE5=I´ll Go Back To Her
TTITLE6=Cant See You
TTITLE7=Them Old Love Songs
TTITLE8=T For Texas
TTITLE9=Bob Wills Is Still The King
TTITLE10=Its Not Supposed To Be That Way
TTITLE11=This Time
TTITLE12=Lets All Help The Cowboys (Sing The Blues)
TTITLE13=Till I Gain Control Again
TTITLE14=Luckenbach Texas
TTITLE15=A Good Heated Woman
TTITLE16=Are You sure Hank Done It This Way
TTITLE17=Interlude
TTITLE18=You Picked A Fine Time To Leave Me Lucille
TTITLE19=Rambling Man
TTITLE20=Honky Tonk Heroes (Like Me)
EXTD=
EXTT0=
EXTT1=
EXTT2=
EXTT3=
EXTT4=
EXTT5=
EXTT6=
EXTT7=
EXTT8=
EXTT9=
EXTT10=
EXTT11=
EXTT12=
EXTT13=
EXTT14=
EXTT15=
EXTT16=
EXTT17=
EXTT18=
EXTT19=
EXTT20=
PLAYORDER=
